<svg xmlns="http://www.w3.org/2000/svg" viewBox="0 0 333.5 360.68"><defs><style>.cls-1{fill:#dc273e;}.cls-2{fill:#fff;}</style></defs><g id="Layer_2" data-name="Layer 2"><g id="Layer_1-2" data-name="Layer 1"><path class="cls-1" d="M13.74,221.29c4.93.89,6.16-3.13,5.78-5a80.32,80.32,0,0,1-1.3-12.67c-.27-4.74-.77-10.38-3.86-14.25A8.08,8.08,0,0,0,8,186.26C-3.51,186,.27,204.55,2,210.74A14.23,14.23,0,0,0,6.15,218a16.3,16.3,0,0,0,7.59,3.33M242.19,9.48c78.91,24.87,90,116.75,90,116.75,2.18,11.92,1.94,50-2.63,68.84-3.12,13-6,47.37-62.21,91.42-10.9,8.54-23.62,18.27-36.72,19.57-1.62.16-3.26.29-4.05-.92s1.63-4.34,2.3-4.73c34.09-20.26,81.48-54.58,83.49-135.65,0,0,4.73-76.22-42.4-112.19C254.81,41,232.89,27.87,215.78,23.16c-2.5-.69-26.24-6-26.87-2-.91,5.7,8.77,6.09,13.58,6.22,11.38.32,25.29,7.32,28.44,8.87,40.73,20,51.52,43.48,55.1,49.2,15.81,25.13,15.18,73.31,15.26,80.26.53,43.52-22.37,73.3-32.6,87.45-17.46,24.11-56.88,54.89-121,60.3-15,1.27-48,.85-80.61-16.94-10.41-5.68-31.39-22.63-41.84-42.17-3.05-5.69-8.93-20.47-2-21.89,4.2-.85,10.27,11.93,21.61,24.18,10.3,11.14,20.83,21.48,36.13,29,20.37,10,45,15.66,55.21,14,2.25-.34,2.51-3.08.29-3.6-6.31-1.49-18.72-2.58-28.95-6.21C91.46,284.19,62,265.61,44.9,243.8c-6.37-8.13-15.9-27-17.75-41-3.2-24.24-2.13-58.68-1-65.38C32.7,98.53,53.66,76,69.61,61.92c15.75-13.81,44.72-23.62,52.18-27.18a1.22,1.22,0,0,0-.26-2.29,12.55,12.55,0,0,0-4.52.39c-1,.29-2.21.52-3.42.75-3.28.67-96.32,21.68-97.32,134.72-.08,10.16-8.89,4.37-10-1.87A119.14,119.14,0,0,1,7.64,117c7.19-30.28,26-54.34,44.66-70.26,27.3-23.3,65.31-36.76,97-42.29,26.94-4.72,48.88-8.91,92.92,5"/><path class="cls-1" d="M284.52,281h6v1.22h-2.28v6.36H286.8v-6.36h-2.28Zm7.1,0h2.19l2.05,5.81h.05l2-5.81h2.21v7.58h-1.44v-6.32h0l-2.21,6.32H295.3l-2.2-6.32h-.05v6.32h-1.43Z"/><path class="cls-2" d="M244.32,97.78c-1.53-.68-2.92-1.28-4-1.8-4.08-1.87-14.11-5-22.17-7.58-4.47-1.41-9.09-2.87-10-3.27-.88-1.36-2.82-9.88-3.76-14-.49-2.14-.87-3.83-1.09-4.56-.73-2.61-1.64-4.09-4.14-4H199c-.87.08-12.83,2.49-32.4,6.45-13.16,2.66-26.76,5.42-27.62,5.53-1.1.09-1.74.65-10.28,13.6-2.57,3.89-5.76,8.72-6.27,9.23-.31.18-2.12.92-4,1.71-5.44,2.24-15.57,6.41-24.23,10.92-9.58,5-28,15.74-29.4,18.28a2.72,2.72,0,0,0,0,2.74,4.13,4.13,0,0,0,3.89,1.57,7.36,7.36,0,0,0,1.19-.16c1.84-.37,60.13-9,93.58-12.75,8.36-.94,18.91-1.75,31.36-2.41,30.63-1.62,61.48-1.75,63.27-1.47a5.48,5.48,0,0,0,4.9-1.69,5.75,5.75,0,0,0,1.52-4.07c-.1-3-6.55-6.36-20.07-12.3"/><path class="cls-2" d="M138.06,157.12c-.23-3-.7-4.4-1.63-5a2.49,2.49,0,0,0-1.67-.31l-.12,0c-1.42.34-2,1.72-2.32,2.64a7.13,7.13,0,0,1-1,1.52c-10.71,14.39-12.08,19.3-12.66,23.83-.47,3.61.77,7.77,2.87,9.67a4.13,4.13,0,0,0,3.49,1,3,3,0,0,0,2.13-1.4,2.44,2.44,0,0,0,.11-2.07c.43-2.27,2.1-5.57,4-9.39,3.22-6.34,7.22-14.24,6.75-20.54"/><path class="cls-2" d="M136.77,147.83l.2,0c2.82-.5,5.17-3.7,6.44-5.43,2.55-3.49,5.61-8.13,7-10.4a18.41,18.41,0,0,0,1.14-2.17,1.9,1.9,0,0,0-.12-1.91c-.45-.52-1.3-.64-2.66-.33a27.23,27.23,0,0,0-14.14,9.65c-1.83,2.53-2.75,5.42-2.39,7.54a3.75,3.75,0,0,0,4.49,3.08"/><path class="cls-2" d="M197.75,176.91a4.27,4.27,0,0,0-1.27.35,37,37,0,0,1-9.11,2.06c-3.55.38-7.07-.09-11.14-.62A71.65,71.65,0,0,0,158,178c-1.25.14-2.53.32-3.79.53,2.24-2.3,8.5-8.75,12.07-12.53,2.45-2.6,6.73-7.43,7.92-10.62.45-1.22,1-3.49-.08-4.93-.74-1-2.06-1.34-3.93-1.15-.29,0-21.71,2.23-21.71,2.23a12.49,12.49,0,0,1-2.06,0l-.27,0c-2.28-.11-3.88.8-4.27,2.4a3.84,3.84,0,0,0,1.84,4c1.46.92,3.83,1.33,7.26,1.24,1.21,0,2.44-.11,3.67-.24a44.73,44.73,0,0,0,6.59-1.2l-16.83,16-1.13,1.06c-2.82,2.65-6,5.64-7.49,8.72-1.29,2.68-1.17,5,.32,6.26a3.7,3.7,0,0,0,3.07.93,20.91,20.91,0,0,0,3.43-.82,74.31,74.31,0,0,1,13.91-2.77,141.23,141.23,0,0,1,19.39-.54,55.27,55.27,0,0,0,7.58-.27c6-.64,11-2.32,14.16-4.74l.13-.1c.93-.71,2.69-2,1.9-3.62a1.76,1.76,0,0,0-1.95-.92"/><path class="cls-2" d="M119.64,163.76c.06-.12,5.31-11.44-4.59-19.48-4.92-4-11.8-5.45-19.38-4.09a30.08,30.08,0,0,0-10.72,4c-3,1.95-3.74,4-3.89,5.31a4.28,4.28,0,0,0,.87,3.22c.42.43,1.17.87,3.17.51a22.73,22.73,0,0,0,3.55-1C86,155.64,78,167.15,71.71,187c-4.55,14.48-5.81,23-3.87,26a2.49,2.49,0,0,0,1.89,1.18,2.54,2.54,0,0,0,.73,0c4-.72,8-11.13,13.58-25.52q1.2-3.12,2.49-6.43c9.24-23.58,9.79-29.31,9.23-30.93,2.79,0,12.83.4,14,8,1,6.33-5.78,12.13-12.46,15.45a37.7,37.7,0,0,1-4.89,1.93,14.8,14.8,0,0,0-3.06,1.24c-.86.54-.74,1.17-.64,1.4.41,1.13,3,1.92,7.06,1.24l.31,0c2.85-.52,17.4-3.73,23.53-16.73"/><path class="cls-2" d="M195.28,203.64c.14-1.78-.13-3.08-.8-3.82a2,2,0,0,0-1.45-.68,3,3,0,0,0-.67,0c-1.74.31-2.88,2.13-4.46,4.64a45.25,45.25,0,0,1-7.21,9.19c-4,3.84-8.43,6.92-9.94,7.56a29.22,29.22,0,0,0,1.31-10.33c-.23-2.36-1-4.06-2.38-5.08a6.27,6.27,0,0,0-4.93-.9,8.15,8.15,0,0,0-4,1.73,1.36,1.36,0,0,0-.45,1.19c.1.53.6,1,1.53,1.37,1.68.73,1.41,1.53,1,2.73-.07.23-.16.47-.21.7-.31,1-.68,2.11-1.07,3.23-1.46,4.21-3,8.56-1.57,12.24,1.13,3,4,4.34,7.73,3.66a14.48,14.48,0,0,0,2.25-.6c4.21-1.48,8.79-5.47,13.65-11.87a12.51,12.51,0,0,0,5.33,9.69,4.54,4.54,0,0,0,3.42,1.13,1.9,1.9,0,0,0,1.4-1,3,3,0,0,0-.29-2.74c-1.06-2.13.23-11,1.08-16.94.32-2.21.59-4.11.67-5.16"/><path class="cls-2" d="M244.36,188.46c-.92-.85-2.71-.47-9.4,1-1.88.42-4.14.91-6.85,1.48-.78.16-2.11.49-3.8.9l-3.06.74.32-.67a47.65,47.65,0,0,0,2.79-6.58,4.48,4.48,0,0,0-.64-4.22,2.69,2.69,0,0,0-2.51-.81,4.31,4.31,0,0,0-2.46,1.53,77.82,77.82,0,0,0-8.63,13.1,36.41,36.41,0,0,1-8.12.54,7.9,7.9,0,0,0-2.28,0l-.08,0a3.64,3.64,0,0,0-2.76,2.19,3,3,0,0,0-.07,2.39,4.3,4.3,0,0,0,2.4,2.35,17,17,0,0,0,6.9,1.07c-4.19,10.36-5.75,20.1-4.63,28.95.2,1.65.64,2.73,1.28,3.21a1.29,1.29,0,0,0,1,.23c1-.17,1.9-1.42,2.46-3.27.46-1.51,6.71-20,11.25-31.41,9.32-3.24,16.73-6.13,22.64-8.84l.34-.15a19.21,19.21,0,0,0,3.74-2,1.54,1.54,0,0,0,.51-1.06,1,1,0,0,0-.32-.74"/><path class="cls-2" d="M159.65,212.51a1.07,1.07,0,0,0-.92-.72c-.44-.15-.91-.09-2,.28l-1.05.39c-.78.29-1.8.68-3.17,1.14.94-4.36,1.81-7.91,2.53-10.78,1.48-5.95,2.22-8.93,1.27-10.29a2,2,0,0,0-1.57-.79,1.89,1.89,0,0,0-.53,0c-3.94.7-9.95,13.27-13.88,25.37l-.91.23c-4.24,1.06-8.92,2.1-13.92,3.09,1.11-3.42,2.27-6.83,3.63-10.71l0-.13c1.33-3.78,3.81-10.81,3.41-14-.26-2.16-1.36-2.44-2-2.41a1.06,1.06,0,0,0-.31,0C126,194,117.68,209.09,112,222.93l-.63.12-1.42.25a49.32,49.32,0,0,0-7.76,1.79c-2.77,1.08-4.34,2.58-4.42,4.21-.08,1.47,1.1,2.88,3.22,3.88a17.19,17.19,0,0,0,6.8,1.33c-2.14,6.72-5.1,18.1-2.4,22.57a3.77,3.77,0,0,0,2.7,1.85,6,6,0,0,0,2.12,0c4.78-.85,6.9-7.69,8.07-12.76,1-4.44,2.25-9.09,3.6-13.83a123.71,123.71,0,0,0,15.77-5.65c-1.52,6.58-3.12,16.91,1.5,17.95a5.22,5.22,0,0,0,2.53.18c1.91-.35,3.64-1.8,4.87-4.11,1.67-3.11,2.47-7.63,3.09-11.63.51-3.2,1-6.28,1.59-9.16a41.21,41.21,0,0,0,7.35-5.1c.85-.85,1.22-1.68,1-2.3"/><path class="cls-2" d="M236.07,147.4c-1.94,4.12-2.26,5.09-2.43,6.52-1.8,1.19-8.14,4.47-10.78,4.69-.63.06-.79-.09-.83-.14s0-.32,0-.42c2.83-7.53,11.49-10.06,14.06-10.65m11.27,9a3.22,3.22,0,0,1-2.31-1.11c-1.19-1.42-.64-3.06.48-6.33.45-1.31,1-2.79,1.47-4.6a4.68,4.68,0,0,0-.33-4.09,2.79,2.79,0,0,0-2-1.24,4.77,4.77,0,0,0-2.57.87,19.75,19.75,0,0,0-5.31-.25c-9.19.78-20.06,7.53-24.76,15.39-2.29,3.85-2.79,7.47-1.45,10.45a4.37,4.37,0,0,0,.35.68,1.9,1.9,0,0,0-.37.13,13.36,13.36,0,0,1-5.15,1.36,48.65,48.65,0,0,1-9.94-.6c-1.6-.2-3.13-.4-4.51-.5,2.6-2.41,10.69-10.5,13.89-13.86a59,59,0,0,0,4.21-4.86c1.46-2.35,1.61-4.51.41-6.09-.92-1.21-3.08-2.56-8.15-2.14-.79.07-1.64.18-2.53.33-8.07,1.34-13.52,2.2-15.75,2.46a5,5,0,0,1-2.14-.11,4.47,4.47,0,0,0-1.27-.17h-.16a3.26,3.26,0,0,0-2.5,1.48,4.58,4.58,0,0,0-.28,4c.84,2.28,3.65,3.23,5.81,3.34a34.84,34.84,0,0,0,4.45-.14c3.45-.3,7.34-.89,9.28-1.2-2,1.78-4.43,3.76-7,5.83a119.32,119.32,0,0,0-11.81,10.34c-3.5,3.73-5.17,7.51-4.14,9.4a2.55,2.55,0,0,0,3,1,33.72,33.72,0,0,1,5.71-.93c2.8-.24,5.69-.22,8.49-.2s5.68,0,8.45-.2a28.53,28.53,0,0,0,8.81-2c3.17-1.33,5.19-3,5.6-4.53a6.93,6.93,0,0,0,1.7.56,13.71,13.71,0,0,0,4,.22c6-.5,11.43-4.47,14.67-6.83.71-.52,1.29-.94,1.74-1.23,1.11,1.94,4.59,3,8.73,2.7l.1,0c2.16-.19,6.85-1.31,8.4-3.15a1.9,1.9,0,0,0,.52-1.37c-.08-1.06-1.15-2.42-5.77-2.82"/><path class="cls-2" d="M58.42,347.59H60.8a3.62,3.62,0,0,0,2.43-.73,2.55,2.55,0,0,0,.86-2.07,2.49,2.49,0,0,0-.84-2,3.61,3.61,0,0,0-2.38-.7H58.42Zm0,3.46v5.58a4.81,4.81,0,0,1-.64,2.76,2.55,2.55,0,0,1-3.89,0,4.81,4.81,0,0,1-.64-2.76V341A4,4,0,0,1,54,338.1a3.92,3.92,0,0,1,2.77-.78h4a9.68,9.68,0,0,1,6.35,1.91,6.38,6.38,0,0,1,2.3,5.18A5.9,5.9,0,0,1,68,348.47a6.65,6.65,0,0,1-4,2.07l4.08,4.53a7.32,7.32,0,0,1,1.16,1.6,2.9,2.9,0,0,1,.38,1.36,2.41,2.41,0,0,1-3.77,2,7.32,7.32,0,0,1-1.46-1.43Z"/><path class="cls-2" d="M84.87,337.32a5.09,5.09,0,0,1,2.76.6,2,2,0,0,1,.92,1.83,2,2,0,0,1-.91,1.79,5.11,5.11,0,0,1-2.77.6H80.66v4.05h3.63a5.21,5.21,0,0,1,2.77.59,2,2,0,0,1,.91,1.81,2,2,0,0,1-.91,1.8,5.22,5.22,0,0,1-2.77.58H80.66v4.25H85a5.09,5.09,0,0,1,2.77.6,2,2,0,0,1,.91,1.79,2,2,0,0,1-.91,1.81A5.19,5.19,0,0,1,85,360H79a4.14,4.14,0,0,1-2.76-.69,3.41,3.41,0,0,1-.75-2.57V341a4,4,0,0,1,.8-2.85,3.9,3.9,0,0,1,2.77-.78Z"/><path class="cls-2" d="M109.72,353a7,7,0,0,1-2.42,5.52,9.36,9.36,0,0,1-6.38,2.12,11.44,11.44,0,0,1-5.19-1.09c-1.43-.73-2.15-1.58-2.15-2.56a2.16,2.16,0,0,1,.69-1.68,2.64,2.64,0,0,1,1.87-.64,10.88,10.88,0,0,1,2.41.57,10.57,10.57,0,0,0,3.1.58,2.57,2.57,0,0,0,1.82-.67,2.3,2.3,0,0,0,0-3.39,9.71,9.71,0,0,0-3.21-1.41,11.66,11.66,0,0,1-5-2.51,5.4,5.4,0,0,1-1.42-3.92,6.54,6.54,0,0,1,2.29-5.17,8.61,8.61,0,0,1,5.94-2,9.13,9.13,0,0,1,4.44,1,2.8,2.8,0,0,1,1.75,2.39,2.13,2.13,0,0,1-.62,1.62,2.38,2.38,0,0,1-1.71.58,7.94,7.94,0,0,1-2-.4,8.42,8.42,0,0,0-2.08-.39,2.93,2.93,0,0,0-1.83.53,1.71,1.71,0,0,0-.69,1.41c0,.93,1,1.71,3,2.34l1.09.35a10.9,10.9,0,0,1,4.76,2.75,6,6,0,0,1,1.49,4.13"/><path class="cls-2" d="M118.49,342.14h-1.9a5.16,5.16,0,0,1-2.77-.59,2,2,0,0,1-.91-1.8,2,2,0,0,1,.91-1.83,5.11,5.11,0,0,1,2.77-.6h9a5.14,5.14,0,0,1,2.76.6,2.26,2.26,0,0,1,0,3.63,5.23,5.23,0,0,1-2.77.59h-1.92v14.49a4.81,4.81,0,0,1-.64,2.76,2.55,2.55,0,0,1-3.89,0,4.81,4.81,0,0,1-.64-2.76Z"/><path class="cls-2" d="M137.12,351h5.42l-2.61-8.41Zm-1.46,4.77-.78,2.29a4.15,4.15,0,0,1-1,1.74,2.06,2.06,0,0,1-1.47.6,2.37,2.37,0,0,1-1.77-.71,2.46,2.46,0,0,1-.69-1.79,5.13,5.13,0,0,1,.06-.81,3.38,3.38,0,0,1,.19-.68l5.9-16a6,6,0,0,1,1.6-2.54,3.83,3.83,0,0,1,4.66,0,4.84,4.84,0,0,1,1.5,2.23l5.75,16.3a7.85,7.85,0,0,1,.26.92,3.29,3.29,0,0,1,.08.72,2.29,2.29,0,0,1-.71,1.75,2.58,2.58,0,0,1-1.84.68,2.3,2.3,0,0,1-1.66-.63,4.21,4.21,0,0,1-1-1.9l-.64-2.1Z"/><path class="cls-2" d="M154.52,350.27V340.7a4.81,4.81,0,0,1,.64-2.76,2.54,2.54,0,0,1,3.9,0,4.89,4.89,0,0,1,.64,2.76v9a7.49,7.49,0,0,0,1.14,4.53,4.6,4.6,0,0,0,6.83,0,7.41,7.41,0,0,0,1.16-4.53v-9a4.81,4.81,0,0,1,.64-2.76,2.19,2.19,0,0,1,1.93-.91,2.22,2.22,0,0,1,1.95.91,4.9,4.9,0,0,1,.63,2.76v9.57c0,3.29-.85,5.85-2.57,7.67a10.73,10.73,0,0,1-14.32,0q-2.57-2.73-2.57-7.67"/><path class="cls-2" d="M186.37,347.59h2.38a3.62,3.62,0,0,0,2.43-.73,2.59,2.59,0,0,0,.86-2.07,2.49,2.49,0,0,0-.84-2,3.62,3.62,0,0,0-2.39-.7h-2.44Zm0,3.46v5.58a4.89,4.89,0,0,1-.64,2.76,2.56,2.56,0,0,1-3.9,0,4.9,4.9,0,0,1-.63-2.76V341a4,4,0,0,1,.79-2.85,3.9,3.9,0,0,1,2.77-.78h4a9.65,9.65,0,0,1,6.34,1.91,6.36,6.36,0,0,1,2.31,5.18,5.9,5.9,0,0,1-1.44,4.06,6.65,6.65,0,0,1-4,2.07l4.08,4.53a7.32,7.32,0,0,1,1.16,1.6,2.9,2.9,0,0,1,.38,1.36,2.34,2.34,0,0,1-.7,1.73,2.37,2.37,0,0,1-1.76.7,2.34,2.34,0,0,1-1.32-.42,7.32,7.32,0,0,1-1.45-1.43Z"/><path class="cls-2" d="M208.61,351H214l-2.62-8.41Zm-1.46,4.77-.78,2.29a4.14,4.14,0,0,1-1,1.74,2.1,2.1,0,0,1-1.48.6,2.4,2.4,0,0,1-1.77-.71,2.46,2.46,0,0,1-.69-1.79,5.13,5.13,0,0,1,.06-.81,4.19,4.19,0,0,1,.19-.68l5.91-16a5.84,5.84,0,0,1,1.59-2.54,3.83,3.83,0,0,1,4.66,0,4.84,4.84,0,0,1,1.5,2.23l5.76,16.3c.11.34.19.65.25.92a3.36,3.36,0,0,1,.09.72,2.3,2.3,0,0,1-.72,1.75,2.58,2.58,0,0,1-1.84.68,2.32,2.32,0,0,1-1.66-.63,4.21,4.21,0,0,1-1.05-1.9l-.64-2.1Z"/><path class="cls-2" d="M231.75,356.63a4.89,4.89,0,0,1-.64,2.76,2.56,2.56,0,0,1-3.9,0,4.9,4.9,0,0,1-.63-2.76V340.52a4.54,4.54,0,0,1,.59-2.6,2,2,0,0,1,1.8-.86,2.71,2.71,0,0,1,1.41.38,5,5,0,0,1,1.34,1.29l9.53,12.6V340.7a4.89,4.89,0,0,1,.64-2.76,2.54,2.54,0,0,1,3.9,0,4.89,4.89,0,0,1,.64,2.76v16.5a4.15,4.15,0,0,1-.58,2.44,2.07,2.07,0,0,1-1.79.79,2.78,2.78,0,0,1-1.52-.45,6.09,6.09,0,0,1-1.44-1.44l-9.35-12.35Z"/><path class="cls-2" d="M256.57,342.14h-1.91a5.21,5.21,0,0,1-2.77-.59,2.27,2.27,0,0,1,0-3.63,5.09,5.09,0,0,1,2.76-.6h9a5.08,5.08,0,0,1,2.75.6,2.26,2.26,0,0,1,0,3.63,5.19,5.19,0,0,1-2.76.59h-1.92v14.49a4.81,4.81,0,0,1-.64,2.76,2.56,2.56,0,0,1-3.9,0,4.9,4.9,0,0,1-.63-2.76Z"/><path class="cls-2" d="M286.82,353a7,7,0,0,1-2.42,5.52,9.36,9.36,0,0,1-6.38,2.12,11.44,11.44,0,0,1-5.19-1.09c-1.43-.73-2.15-1.58-2.15-2.56a2.16,2.16,0,0,1,.69-1.68,2.63,2.63,0,0,1,1.86-.64,10.79,10.79,0,0,1,2.42.57,10.57,10.57,0,0,0,3.1.58,2.56,2.56,0,0,0,1.82-.67,2.3,2.3,0,0,0,0-3.39,9.71,9.71,0,0,0-3.21-1.41,11.66,11.66,0,0,1-5-2.51,5.4,5.4,0,0,1-1.42-3.92,6.54,6.54,0,0,1,2.29-5.17,8.61,8.61,0,0,1,5.94-2,9.13,9.13,0,0,1,4.44,1,2.8,2.8,0,0,1,1.75,2.39,2.13,2.13,0,0,1-.62,1.62,2.38,2.38,0,0,1-1.71.58,7.94,7.94,0,0,1-2-.4,8.42,8.42,0,0,0-2.08-.39,3,3,0,0,0-1.84.53,1.72,1.72,0,0,0-.68,1.41c0,.93,1,1.71,3,2.34l1.09.35a10.9,10.9,0,0,1,4.76,2.75,6,6,0,0,1,1.49,4.13"/></g></g></svg>